0
SECTION
2
HEADER
9
$INSUNITS
70
4
9
$ACADVER
1
AC1014
9
$HANDSEED
5
FFFF
0
ENDSEC
0
SECTION
2
TABLES
0
TABLE
2
VPORT
5
8
100
AcDbSymbolTable
0
ENDTAB
0
TABLE
2
LTYPE
5
5
100
AcDbSymbolTable
0
LTYPE
5
14
100
AcDbSymbolTableRecord
100
AcDbLinetypeTableRecord
2
BYBLOCK
70
0
0
LTYPE
5
15
100
AcDbSymbolTableRecord
100
AcDbLinetypeTableRecord
2
BYLAYER
70
0
0
ENDTAB
0
TABLE
2
LAYER
5
2
100
AcDbSymbolTable
70
2
0
LAYER
5
50
100
AcDbSymbolTableRecord
100
AcDbLayerTableRecord
2
0
70
0
6
CONTINUOUS
0
ENDTAB
0
TABLE
2
STYLE
5
3
100
AcDbSymbolTable
70
1
0
STYLE
5
11
100
AcDbSymbolTableRecord
100
AcDbTextStyleTableRecord
2
STANDARD
70
0
0
ENDTAB
0
TABLE
2
VIEW
5
6
100
AcDbSymbolTable
70
0
0
ENDTAB
0
TABLE
2
UCS
5
7
100
AcDbSymbolTable
70
0
0
ENDTAB
0
TABLE
2
APPID
5
9
100
AcDbSymbolTable
70
2
0
APPID
5
12
100
AcDbSymbolTableRecord
100
AcDbRegAppTableRecord
2
ACAD
70
0
0
ENDTAB
0
TABLE
2
DIMSTYLE
5
A
100
AcDbSymbolTable
70
1
0
ENDTAB
0
TABLE
2
BLOCK_RECORD
5
1
100
AcDbSymbolTable
70
1
0
BLOCK_RECORD
5
1F
100
AcDbSymbolTableRecord
100
AcDbBlockTableRecord
2
*MODEL_SPACE
0
BLOCK_RECORD
5
1B
100
AcDbSymbolTableRecord
100
AcDbBlockTableRecord
2
*PAPER_SPACE
0
ENDTAB
0
ENDSEC
0
SECTION
2
BLOCKS
0
BLOCK
5
20
100
AcDbEntity
100
AcDbBlockBegin
2
*MODEL_SPACE
0
ENDBLK
5
21
100
AcDbEntity
100
AcDbBlockEnd
0
BLOCK
5
1C
100
AcDbEntity
100
AcDbBlockBegin
2
*PAPER_SPACE
0
ENDBLK
5
1D
100
AcDbEntity
100
AcDbBlockEnd
0
ENDSEC
0
SECTION
2
ENTITIES
0
ARC
5
100
100
AcDbEntity
8
0
100
AcDbCircle
10
-15.599999999999996
20
-7.9499999999999993
30
0
40
0.75000000000000178
210
0
220
0
230
1
100
AcDbArc
50
180
51
270
0
ARC
5
101
100
AcDbEntity
8
0
100
AcDbCircle
10
15.600000000000005
20
-7.9499999999999993
30
0
40
0.75000000000000067
210
0
220
0
230
1
100
AcDbArc
50
-90
51
0
0
ARC
5
102
100
AcDbEntity
8
0
100
AcDbCircle
10
15.600000000000005
20
7.9499999999999993
30
0
40
0.75000000000000178
210
0
220
0
230
1
100
AcDbArc
50
0
51
90
0
ARC
5
103
100
AcDbEntity
8
0
100
AcDbCircle
10
-15.599999999999996
20
7.9499999999999993
30
0
40
0.75000000000000067
210
0
220
-0
230
1
100
AcDbArc
50
90
51
180
0
CIRCLE
5
104
100
AcDbEntity
8
0
100
AcDbCircle
10
-2.1499999999999955
20
0
30
0
40
4.7500000000000018
210
0
220
0
230
1
0
CIRCLE
5
105
100
AcDbEntity
8
0
100
AcDbCircle
10
11.680000000000003
20
0
30
0
40
2.5000000000000004
210
0
220
0
230
1
0
ARC
5
106
100
AcDbEntity
8
0
100
AcDbCircle
10
-15.599999999999996
20
-7.9499999999999993
30
0
40
0.75000000000000178
210
0
220
0
230
1
100
AcDbArc
50
180
51
270
0
ARC
5
107
100
AcDbEntity
8
0
100
AcDbCircle
10
15.600000000000005
20
-7.9499999999999993
30
0
40
0.75000000000000067
210
-0
220
0
230
1
100
AcDbArc
50
-90
51
0
0
ARC
5
108
100
AcDbEntity
8
0
100
AcDbCircle
10
15.600000000000005
20
7.9499999999999993
30
0
40
0.75000000000000178
210
0
220
-0
230
1
100
AcDbArc
50
0
51
90
0
ARC
5
109
100
AcDbEntity
8
0
100
AcDbCircle
10
-15.599999999999996
20
7.9499999999999993
30
0
40
0.75000000000000067
210
0
220
-0
230
1
100
AcDbArc
50
90
51
180
0
CIRCLE
5
110
100
AcDbEntity
8
0
100
AcDbCircle
10
-2.1499999999999955
20
0
30
0
40
4.7500000000000018
210
0
220
-0
230
1
0
CIRCLE
5
111
100
AcDbEntity
8
0
100
AcDbCircle
10
11.680000000000003
20
0
30
0
40
2.5000000000000004
210
0
220
-0
230
1
0
LINE
5
112
100
AcDbEntity
8
0
100
AcDbLine
10
15.600000000000005
20
-8.6999999999999993
30
0
11
15.600000000000005
21
-12.5
31
0
0
LINE
5
113
100
AcDbEntity
8
0
100
AcDbLine
10
-15.599999999999996
20
-8.6999999999999993
30
0
11
-15.599999999999968
21
-12.5
31
0
0
LINE
5
114
100
AcDbEntity
8
0
100
AcDbLine
10
15.600000000000005
20
8.6999999999999993
30
0
11
15.600000000000005
21
11.35
31
0
0
LINE
5
115
100
AcDbEntity
8
0
100
AcDbLine
10
-15.599999999999996
20
8.6999999999999993
30
0
11
-15.599999999999996
21
11.35
31
0
0
LINE
5
116
100
AcDbEntity
8
0
100
AcDbLine
10
14.850000000000005
20
12.1
30
0
11
-14.849999999999996
21
12.1
31
0
0
LINE
5
117
100
AcDbEntity
8
0
100
AcDbLine
10
-16.349999999999998
20
-7.9499999999999993
30
0
11
-19
21
-7.9499999999999993
31
0
0
LINE
5
118
100
AcDbEntity
8
0
100
AcDbLine
10
-16.349999999999998
20
-6.1499999999999986
30
0
11
-18.999999999999996
21
-6.1499999999999986
31
0
0
LINE
5
119
100
AcDbEntity
8
0
100
AcDbLine
10
-19.75
20
-7.1999999999999993
30
0
11
-19.75
21
-6.8999999999999995
31
0
0
LINE
5
120
100
AcDbEntity
8
0
100
AcDbLine
10
-16.349999999999994
20
7.9499999999999993
30
0
11
-19
21
7.9500000000000011
31
0
0
LINE
5
121
100
AcDbEntity
8
0
100
AcDbLine
10
-16.349999999999998
20
6.1499999999999986
30
0
11
-18.999999999999993
21
6.1500000000000012
31
0
0
LINE
5
122
100
AcDbEntity
8
0
100
AcDbLine
10
-19.749999999999996
20
7.2000000000000046
30
0
11
-19.749999999999996
21
6.9000000000000039
31
0
0
LINE
5
123
100
AcDbEntity
8
0
100
AcDbLine
10
16.350000000000009
20
-7.9499999999999993
30
0
11
19.000000000000007
21
-7.9499999999999993
31
0
0
LINE
5
124
100
AcDbEntity
8
0
100
AcDbLine
10
16.350000000000009
20
7.9499999999999993
30
0
11
19.000000000000007
21
7.9499999999999993
31
0
0
LINE
5
125
100
AcDbEntity
8
0
100
AcDbLine
10
19.750000000000007
20
-7.1999999999999993
30
0
11
19.750000000000007
21
7.1999999999999993
31
0
0
LINE
5
126
100
AcDbEntity
8
0
100
AcDbLine
10
16.350000506994327
20
-13.249999928255782
30
0
11
16.350002027964944
21
-29.149999928255966
31
0
0
LINE
5
127
100
AcDbEntity
8
0
100
AcDbLine
10
15.600002027964949
20
-29.900000000000016
30
0
11
-15.599999999999996
21
-29.900000000000002
31
0
0
ARC
5
128
100
AcDbEntity
8
0
100
AcDbCircle
10
15.600002027964951
20
-29.149999999999995
30
0
40
0.75000000000001954
210
0
220
0
230
1
100
AcDbArc
50
-90.000000000000142
51
5.4668187275950014e-06
0
ARC
5
129
100
AcDbEntity
8
0
100
AcDbCircle
10
-15.599999999999994
20
-29.149999999999995
30
0
40
0.75000000000000488
210
0
220
0
230
1
100
AcDbArc
50
179.7105474140505
51
269.99999999999983
0
ARC
5
130
100
AcDbEntity
8
0
100
AcDbCircle
10
15.600000506994391
20
-13.249999999999819
30
0
40
0.74999999999994071
210
-0
220
0
230
1
100
AcDbArc
50
5.4668187275950014e-06
51
90.000038731518075
0
ARC
5
131
100
AcDbEntity
8
0
100
AcDbCircle
10
-15.599999999999969
20
-13.249999999999995
30
0
40
0.74999999999999512
210
0
220
-0
230
1
100
AcDbArc
50
89.999999999999872
51
179.34418201043496
0
ARC
5
132
100
AcDbEntity
8
0
100
AcDbCircle
10
19.000000000000011
20
-7.200000000000002
30
0
40
0.74999999999999734
210
0
220
0
230
1
100
AcDbArc
50
-90.000000000000313
51
0
0
ARC
5
133
100
AcDbEntity
8
0
100
AcDbCircle
10
19.000000000000011
20
7.200000000000002
30
0
40
0.74999999999999734
210
-0
220
0
230
1
100
AcDbArc
50
0
51
90.00000000000027
0
ARC
5
134
100
AcDbEntity
8
0
100
AcDbCircle
10
14.850000000000012
20
11.350000000000007
30
0
40
0.74999999999999289
210
0
220
0
230
1
100
AcDbArc
50
0
51
90.00000000000054
0
ARC
5
135
100
AcDbEntity
8
0
100
AcDbCircle
10
-14.849999999999998
20
11.350000000000001
30
0
40
0.74999999999999734
210
0
220
-0
230
1
100
AcDbArc
50
89.999999999999872
51
180
0
ARC
5
136
100
AcDbEntity
8
0
100
AcDbCircle
10
-19
20
-7.200000000000002
30
0
40
0.74999999999999734
210
0
220
0
230
1
100
AcDbArc
50
180
51
270
0
ARC
5
137
100
AcDbEntity
8
0
100
AcDbCircle
10
-18.999999999999996
20
-6.9000000000000021
30
0
40
0.75000000000000289
210
0
220
-0
230
1
100
AcDbArc
50
90
51
180
0
ARC
5
138
100
AcDbEntity
8
0
100
AcDbCircle
10
-18.999999999999993
20
6.900000000000003
30
0
40
0.75000000000000178
210
0
220
0
230
1
100
AcDbArc
50
180
51
270
0
ARC
5
139
100
AcDbEntity
8
0
100
AcDbCircle
10
-19
20
7.2000000000000028
30
0
40
0.74999999999999845
210
0
220
-0
230
1
100
AcDbArc
50
90
51
180
0
LINE
5
140
100
AcDbEntity
8
0
100
AcDbLine
10
-16.349950869870074
20
-13.241415550042849
30
0
11
-16.349950869870074
21
-15.526352040581751
31
0
0
LINE
5
141
100
AcDbEntity
8
0
100
AcDbLine
10
-16.349978645242473
20
-26.856475889437501
30
0
11
-16.349990429382775
21
-29.146211090626672
31
0
0
CIRCLE
5
142
100
AcDbEntity
8
0
100
AcDbCircle
10
11.680001267479659
20
-21.200000374981208
30
0
40
2.5
210
0
220
0
230
1
0
LINE
5
143
100
AcDbEntity
8
0
100
AcDbLine
10
-16.349999999999998
20
6.1499999999999986
30
0
11
-16.349999999999998
21
-6.1499999999999986
31
0
0
LINE
5
144
100
AcDbEntity
8
0
100
AcDbLine
10
-16.349950869870074
20
-15.526352040581751
30
0
11
-16.349978645242473
21
-26.856475889437501
31
0
0
ENDSEC
0
SECTION
2
OBJECTS
0
DICTIONARY
5
C
100
AcDbDictionary
3
ACAD_GROUP
350
D
3
ACAD_MLINESTYLE
350
17
0
DICTIONARY
5
D
100
AcDbDictionary
0
DICTIONARY
5
1A
330
C
100
AcDbDictionary
0
DICTIONARY
5
17
100
AcDbDictionary
0
ENDSEC
0
EOF
